# xmcd CD database file
#
# Track frame offsets:
#	150
#	22510
#	43432
#	106927
#	128010
#	160177
#	188462
#	211147
#	242047
#	264082
#	298102
#
# Disc length: 4295 seconds
#
# Revision: 0
# Processed by: cddbd v1.5.2PL0 Copyright (c) Steve Scherf et al.
# Submitted via: CDex 1.70beta2
#
DISCID=8910c50b
DTITLE=Various Artist - Can't Hide the Eastern Charm
DYEAR=1900
DGENRE=New Age
TTITLE0=Eastern Awakening
TTITLE1=Yin and Yang
TTITLE2=Call of the Dragon
TTITLE3=Battlefield
TTITLE4=Impossible to Escape
TTITLE5=The River is Flowing
TTITLE6=Boat songs
TTITLE7=Reflection of the moon
TTITLE8=A trip to Koo Sue
TTITLE9=Geese in the Meadow
TTITLE10=The isolated Shepherd
EXTD=
EXTT0=
EXTT1=
EXTT2=
EXTT3=
EXTT4=
EXTT5=
EXTT6=
EXTT7=
EXTT8=
EXTT9=
EXTT10=
PLAYORDER=
